# xmcd
#
# Track frame offsets:
#	150
#	18126
#	33296
#	48670
#	62306
#	80816
#	94918
#	110067
#	126881
#	141359
#
# Disc length: 2095 seconds
#
# Revision: 1
# Processed by: cddbd v1.5.2PL0 Copyright (c) Steve Scherf et al.
# Submitted via: audiograbber 1.83.01
#
DISCID=86082d0a
DTITLE=Dolly Parton - Dolly, Dolly, Dolly
DYEAR=1980
DGENRE=Country
TTITLE0=Starting Over Again
TTITLE1=Same Old Fool
TTITLE2=Old Flames (Can't Hold A Candle For You)
TTITLE3=You're The Only One I Ever Needed
TTITLE4=Say Goodnight
TTITLE5=Fool For Your Love
TTITLE6=Even A Fool Would Let Go
TTITLE7=Sweet Agony
TTITLE8=I Knew You When
TTITLE9=Packin' It Up
EXTD=
EXTT0=
EXTT1=
EXTT2=
EXTT3=
EXTT4=
EXTT5=
EXTT6=
EXTT7=
EXTT8=
EXTT9=
PLAYORDER=
